<svg xmlns="http://www.w3.org/2000/svg" xmlns:xlink="http://www.w3.org/1999/xlink" width="1920" zoomAndPan="magnify" viewBox="0 0 1440 225" height="300" preserveAspectRatio="xMidYMid meet" version="1.0"><defs><g/><clipPath id="eb6dbc4fd4"><path d="M 299.175781 57 L 493 57 L 493 166 L 299.175781 166 Z M 299.175781 57 " clip-rule="nonzero"/></clipPath></defs><rect x="-144" width="1728" fill="#ffffff" y="-22.5" height="270" fill-opacity="1"/><rect x="-144" width="1728" fill="#edecee" y="-22.5" height="270" fill-opacity="1"/><g clip-path="url(#eb6dbc4fd4)"><path stroke-linecap="butt" transform="matrix(2.050908, 0, 0, 2.050781, 299.357272, 46.58025)" fill="none" stroke-linejoin="miter" d="M 30.153444 45.665632 C 19.910269 47.539918 12.560248 47.145632 11.487933 44.136109 C 9.796609 39.393251 24.34428 29.953251 43.983064 23.050393 C 63.619944 16.147536 80.910302 14.398965 82.599722 19.141822 C 83.679655 22.168489 78.142855 27.109441 68.891999 32.082775 " stroke="#364d9d" stroke-width="2" stroke-opacity="1" stroke-miterlimit="4"/></g><path fill="#364d9d" d="M 441.695312 109.867188 C 441.695312 111.398438 441.617188 112.921875 441.46875 114.445312 C 441.316406 115.96875 441.089844 117.480469 440.789062 118.980469 C 440.488281 120.480469 440.117188 121.960938 439.667969 123.425781 C 439.222656 124.890625 438.703125 126.328125 438.113281 127.742188 C 437.523438 129.15625 436.867188 130.535156 436.140625 131.886719 C 435.414062 133.234375 434.621094 134.546875 433.765625 135.816406 C 432.910156 137.089844 431.992188 138.316406 431.015625 139.5 C 430.039062 140.679688 429.003906 141.8125 427.917969 142.894531 C 426.828125 143.976562 425.6875 145.003906 424.496094 145.972656 C 423.304688 146.945312 422.070312 147.855469 420.789062 148.703125 C 419.507812 149.554688 418.1875 150.339844 416.828125 151.0625 C 415.46875 151.78125 414.078125 152.433594 412.65625 153.019531 C 411.230469 153.605469 409.78125 154.121094 408.308594 154.566406 C 406.832031 155.007812 405.339844 155.378906 403.832031 155.679688 C 402.320312 155.976562 400.796875 156.199219 399.261719 156.351562 C 397.730469 156.5 396.195312 156.574219 394.652344 156.574219 C 393.113281 156.574219 391.574219 156.5 390.042969 156.351562 C 388.507812 156.199219 386.988281 155.976562 385.476562 155.679688 C 383.964844 155.378906 382.472656 155.007812 380.996094 154.566406 C 379.523438 154.121094 378.074219 153.605469 376.652344 153.019531 C 375.226562 152.433594 373.835938 151.78125 372.476562 151.0625 C 371.117188 150.339844 369.796875 149.554688 368.519531 148.703125 C 367.238281 147.855469 366 146.945312 364.808594 145.972656 C 363.617188 145.003906 362.480469 143.976562 361.390625 142.894531 C 360.300781 141.8125 359.265625 140.679688 358.289062 139.5 C 357.3125 138.316406 356.394531 137.089844 355.539062 135.816406 C 354.683594 134.546875 353.890625 133.234375 353.164062 131.886719 C 352.4375 130.535156 351.78125 129.15625 351.191406 127.742188 C 350.601562 126.328125 350.082031 124.890625 349.636719 123.425781 C 349.1875 121.960938 348.816406 120.480469 348.515625 118.980469 C 348.214844 117.480469 347.988281 115.96875 347.835938 114.445312 C 347.6875 112.921875 347.609375 111.398438 347.609375 109.867188 C 347.609375 108.335938 347.6875 106.8125 347.835938 105.289062 C 347.988281 103.765625 348.214844 102.253906 348.515625 100.753906 C 348.816406 99.253906 349.1875 97.773438 349.636719 96.308594 C 350.082031 94.84375 350.601562 93.40625 351.191406 91.992188 C 351.78125 90.578125 352.4375 89.199219 353.164062 87.847656 C 353.890625 86.5 354.683594 85.1875 355.539062 83.917969 C 356.394531 82.644531 357.3125 81.417969 358.289062 80.234375 C 359.265625 79.054688 360.300781 77.921875 361.390625 76.839844 C 362.480469 75.757812 363.617188 74.730469 364.808594 73.761719 C 366 72.789062 367.238281 71.878906 368.519531 71.03125 C 369.796875 70.179688 371.117188 69.394531 372.476562 68.675781 C 373.835938 67.953125 375.226562 67.300781 376.652344 66.714844 C 378.074219 66.128906 379.523438 65.613281 380.996094 65.171875 C 382.472656 64.726562 383.964844 64.355469 385.476562 64.054688 C 386.988281 63.757812 388.507812 63.535156 390.042969 63.382812 C 391.574219 63.234375 393.113281 63.160156 394.652344 63.160156 C 396.195312 63.160156 397.730469 63.234375 399.261719 63.382812 C 400.796875 63.535156 402.320312 63.757812 403.832031 64.054688 C 405.339844 64.355469 406.832031 64.726562 408.308594 65.171875 C 409.78125 65.613281 411.230469 66.128906 412.65625 66.714844 C 414.078125 67.300781 415.46875 67.953125 416.828125 68.675781 C 418.1875 69.394531 419.507812 70.179688 420.789062 71.03125 C 422.070312 71.878906 423.304688 72.789062 424.496094 73.761719 C 425.6875 74.730469 426.828125 75.757812 427.917969 76.839844 C 429.003906 77.921875 430.039062 79.054688 431.015625 80.234375 C 431.992188 81.417969 432.910156 82.644531 433.765625 83.917969 C 434.621094 85.1875 435.414062 86.5 436.140625 87.847656 C 436.867188 89.199219 437.523438 90.578125 438.113281 91.992188 C 438.703125 93.40625 439.222656 94.84375 439.667969 96.308594 C 440.117188 97.773438 440.488281 99.253906 440.789062 100.753906 C 441.089844 102.253906 441.316406 103.765625 441.46875 105.289062 C 441.617188 106.8125 441.695312 108.335938 441.695312 109.867188 Z M 441.695312 109.867188 " fill-opacity="1" fill-rule="nonzero"/><path fill="#edecee" d="M 372.699219 95.617188 C 372.699219 93.742188 374.230469 92.222656 376.121094 92.222656 L 413.753906 92.222656 C 415.640625 92.222656 417.175781 93.742188 417.175781 95.617188 L 417.175781 126.191406 C 417.175781 128.066406 415.640625 129.585938 413.753906 129.585938 L 376.121094 129.585938 C 374.230469 129.585938 372.699219 128.066406 372.699219 126.191406 Z M 413.753906 95.617188 L 376.121094 95.617188 L 376.121094 126.191406 L 413.753906 126.191406 Z M 413.753906 95.617188 " fill-opacity="1" fill-rule="evenodd"/><path fill="#edecee" d="M 372.699219 100.714844 C 372.699219 99.777344 373.464844 99.015625 374.410156 99.015625 L 415.464844 99.015625 C 416.410156 99.015625 417.175781 99.777344 417.175781 100.714844 C 417.175781 101.652344 416.410156 102.414062 415.464844 102.414062 L 374.410156 102.414062 C 373.464844 102.414062 372.699219 101.652344 372.699219 100.714844 Z M 372.699219 100.714844 " fill-opacity="1" fill-rule="evenodd"/><path fill="#edecee" d="M 386.382812 105.808594 C 387.328125 105.808594 388.09375 106.570312 388.09375 107.507812 C 388.09375 109.308594 388.816406 111.039062 390.097656 112.3125 C 391.382812 113.585938 393.121094 114.300781 394.9375 114.300781 C 396.75 114.300781 398.492188 113.585938 399.773438 112.3125 C 401.058594 111.039062 401.777344 109.308594 401.777344 107.507812 C 401.777344 106.570312 402.542969 105.808594 403.488281 105.808594 C 404.433594 105.808594 405.199219 106.570312 405.199219 107.507812 C 405.199219 110.210938 404.117188 112.800781 402.195312 114.714844 C 400.269531 116.625 397.660156 117.699219 394.9375 117.699219 C 392.214844 117.699219 389.605469 116.625 387.679688 114.714844 C 385.753906 112.800781 384.671875 110.210938 384.671875 107.507812 C 384.671875 106.570312 385.4375 105.808594 386.382812 105.808594 Z M 386.382812 105.808594 " fill-opacity="1" fill-rule="evenodd"/><path stroke-linecap="butt" transform="matrix(2.050908, 0, 0, 2.050781, 299.357272, 46.58025)" fill="none" stroke-linejoin="miter" d="M 30.153444 45.665632 C 31.882861 45.349442 33.692273 44.96849 35.570252 44.52468 M 68.891999 32.082775 C 67.147345 33.019918 65.273175 33.957061 63.284727 34.88468 " stroke="#f7f7f8" stroke-width="2" stroke-opacity="1" stroke-miterlimit="4"/><g fill="#1a181b" fill-opacity="1"><g transform="translate(496.703475, 150.553055)"><g><path d="M 39.203125 0 L 22.015625 -56 L 21.578125 -56 C 22.203125 -44.613281 22.515625 -37.015625 22.515625 -33.203125 L 22.515625 0 L 8.984375 0 L 8.984375 -71.390625 L 29.59375 -71.390625 L 46.484375 -16.796875 L 46.78125 -16.796875 L 64.703125 -71.390625 L 85.296875 -71.390625 L 85.296875 0 L 71.1875 0 L 71.1875 -33.796875 C 71.1875 -35.390625 71.210938 -37.226562 71.265625 -39.3125 C 71.316406 -41.394531 71.535156 -46.925781 71.921875 -55.90625 L 71.484375 -55.90625 L 53.078125 0 Z M 39.203125 0 "/></g></g></g><g fill="#1a181b" fill-opacity="1"><g transform="translate(590.986904, 150.553055)"><g><path d="M 52.6875 0 L 47.515625 -17 L 21.484375 -17 L 16.3125 0 L 0 0 L 25.203125 -71.6875 L 43.703125 -71.6875 L 69 0 Z M 43.890625 -29.6875 C 39.109375 -45.082031 36.414062 -53.789062 35.8125 -55.8125 C 35.207031 -57.832031 34.773438 -59.425781 34.515625 -60.59375 C 33.441406 -56.425781 30.367188 -46.125 25.296875 -29.6875 Z M 43.890625 -29.6875 "/></g></g></g><g fill="#1a181b" fill-opacity="1"><g transform="translate(659.978352, 150.553055)"><g><path d="M 24.125 -39.703125 L 29 -39.703125 C 33.789062 -39.703125 37.320312 -40.5 39.59375 -42.09375 C 41.875 -43.6875 43.015625 -46.191406 43.015625 -49.609375 C 43.015625 -52.992188 41.847656 -55.398438 39.515625 -56.828125 C 37.191406 -58.265625 33.59375 -58.984375 28.71875 -58.984375 L 24.125 -58.984375 Z M 24.125 -27.390625 L 24.125 0 L 8.984375 0 L 8.984375 -71.390625 L 29.78125 -71.390625 C 39.488281 -71.390625 46.664062 -69.625 51.3125 -66.09375 C 55.96875 -62.5625 58.296875 -57.195312 58.296875 -50 C 58.296875 -45.800781 57.140625 -42.066406 54.828125 -38.796875 C 52.523438 -35.523438 49.253906 -32.960938 45.015625 -31.109375 C 55.765625 -15.054688 62.765625 -4.6875 66.015625 0 L 49.21875 0 L 32.171875 -27.390625 Z M 24.125 -27.390625 "/></g></g></g><g fill="#1a181b" fill-opacity="1"><g transform="translate(725.991385, 150.553055)"><g><path d="M 66.40625 0 L 49.21875 0 L 30.515625 -30.078125 L 24.125 -25.484375 L 24.125 0 L 8.984375 0 L 8.984375 -71.390625 L 24.125 -71.390625 L 24.125 -38.71875 L 30.078125 -47.125 L 49.421875 -71.390625 L 66.21875 -71.390625 L 41.3125 -39.796875 Z M 66.40625 0 "/></g></g></g><g fill="#1a181b" fill-opacity="1"><g transform="translate(792.395038, 150.553055)"><g><path d="M 50.09375 0 L 8.984375 0 L 8.984375 -71.390625 L 50.09375 -71.390625 L 50.09375 -58.984375 L 24.125 -58.984375 L 24.125 -43.3125 L 48.296875 -43.3125 L 48.296875 -30.90625 L 24.125 -30.90625 L 24.125 -12.5 L 50.09375 -12.5 Z M 50.09375 0 "/></g></g></g><g fill="#1a181b" fill-opacity="1"><g transform="translate(848.398713, 150.553055)"><g><path d="M 36.53125 0 L 21.390625 0 L 21.390625 -58.796875 L 2 -58.796875 L 2 -71.390625 L 55.90625 -71.390625 L 55.90625 -58.796875 L 36.53125 -58.796875 Z M 36.53125 0 "/></g></g></g><g fill="#1a181b" fill-opacity="1"><g transform="translate(906.306593, 150.553055)"><g><path d="M 51.125 -19.828125 C 51.125 -13.378906 48.800781 -8.296875 44.15625 -4.578125 C 39.519531 -0.867188 33.070312 0.984375 24.8125 0.984375 C 17.1875 0.984375 10.445312 -0.453125 4.59375 -3.328125 L 4.59375 -17.390625 C 9.40625 -15.234375 13.476562 -13.71875 16.8125 -12.84375 C 20.15625 -11.96875 23.210938 -11.53125 25.984375 -11.53125 C 29.296875 -11.53125 31.835938 -12.160156 33.609375 -13.421875 C 35.390625 -14.691406 36.28125 -16.582031 36.28125 -19.09375 C 36.28125 -20.488281 35.890625 -21.734375 35.109375 -22.828125 C 34.328125 -23.921875 33.175781 -24.96875 31.65625 -25.96875 C 30.144531 -26.976562 27.0625 -28.59375 22.40625 -30.8125 C 18.050781 -32.863281 14.78125 -34.832031 12.59375 -36.71875 C 10.414062 -38.601562 8.675781 -40.800781 7.375 -43.3125 C 6.070312 -45.820312 5.421875 -48.75 5.421875 -52.09375 C 5.421875 -58.414062 7.5625 -63.378906 11.84375 -66.984375 C 16.125 -70.597656 22.039062 -72.40625 29.59375 -72.40625 C 33.300781 -72.40625 36.835938 -71.96875 40.203125 -71.09375 C 43.578125 -70.21875 47.101562 -68.984375 50.78125 -67.390625 L 45.90625 -55.609375 C 42.09375 -57.171875 38.941406 -58.257812 36.453125 -58.875 C 33.960938 -59.5 31.515625 -59.8125 29.109375 -59.8125 C 26.242188 -59.8125 24.046875 -59.144531 22.515625 -57.8125 C 20.984375 -56.476562 20.21875 -54.738281 20.21875 -52.59375 C 20.21875 -51.257812 20.523438 -50.09375 21.140625 -49.09375 C 21.765625 -48.101562 22.75 -47.144531 24.09375 -46.21875 C 25.445312 -45.289062 28.644531 -43.625 33.6875 -41.21875 C 40.363281 -38.019531 44.9375 -34.816406 47.40625 -31.609375 C 49.882812 -28.410156 51.125 -24.484375 51.125 -19.828125 Z M 51.125 -19.828125 "/></g></g></g><g fill="#1a181b" fill-opacity="1"><g transform="translate(961.382564, 150.553055)"><g><path d="M 24.125 -37.796875 L 29.109375 -37.796875 C 33.753906 -37.796875 37.234375 -38.710938 39.546875 -40.546875 C 41.859375 -42.390625 43.015625 -45.066406 43.015625 -48.578125 C 43.015625 -52.128906 42.046875 -54.75 40.109375 -56.4375 C 38.171875 -58.132812 35.132812 -58.984375 31 -58.984375 L 24.125 -58.984375 Z M 58.296875 -49.125 C 58.296875 -41.4375 55.894531 -35.554688 51.09375 -31.484375 C 46.289062 -27.421875 39.460938 -25.390625 30.609375 -25.390625 L 24.125 -25.390625 L 24.125 0 L 8.984375 0 L 8.984375 -71.390625 L 31.78125 -71.390625 C 40.445312 -71.390625 47.03125 -69.523438 51.53125 -65.796875 C 56.039062 -62.066406 58.296875 -56.507812 58.296875 -49.125 Z M 58.296875 -49.125 "/></g></g></g><g fill="#1a181b" fill-opacity="1"><g transform="translate(1024.173089, 150.553055)"><g><path d="M 52.6875 0 L 47.515625 -17 L 21.484375 -17 L 16.3125 0 L 0 0 L 25.203125 -71.6875 L 43.703125 -71.6875 L 69 0 Z M 43.890625 -29.6875 C 39.109375 -45.082031 36.414062 -53.789062 35.8125 -55.8125 C 35.207031 -57.832031 34.773438 -59.425781 34.515625 -60.59375 C 33.441406 -56.425781 30.367188 -46.125 25.296875 -29.6875 Z M 43.890625 -29.6875 "/></g></g></g><g fill="#1a181b" fill-opacity="1"><g transform="translate(1093.164525, 150.553055)"><g><path d="M 39.3125 -59.8125 C 33.613281 -59.8125 29.203125 -57.671875 26.078125 -53.390625 C 22.953125 -49.109375 21.390625 -43.144531 21.390625 -35.5 C 21.390625 -19.582031 27.363281 -11.625 39.3125 -11.625 C 44.320312 -11.625 50.390625 -12.875 57.515625 -15.375 L 57.515625 -2.6875 C 51.660156 -0.238281 45.117188 0.984375 37.890625 0.984375 C 27.503906 0.984375 19.5625 -2.164062 14.0625 -8.46875 C 8.5625 -14.769531 5.8125 -23.8125 5.8125 -35.59375 C 5.8125 -43.019531 7.160156 -49.523438 9.859375 -55.109375 C 12.566406 -60.691406 16.453125 -64.96875 21.515625 -67.9375 C 26.578125 -70.914062 32.507812 -72.40625 39.3125 -72.40625 C 46.238281 -72.40625 53.203125 -70.734375 60.203125 -67.390625 L 55.328125 -55.078125 C 52.648438 -56.347656 49.960938 -57.453125 47.265625 -58.390625 C 44.566406 -59.335938 41.914062 -59.8125 39.3125 -59.8125 Z M 39.3125 -59.8125 "/></g></g></g><g fill="#1a181b" fill-opacity="1"><g transform="translate(1156.882754, 150.553055)"><g><path d="M 50.09375 0 L 8.984375 0 L 8.984375 -71.390625 L 50.09375 -71.390625 L 50.09375 -58.984375 L 24.125 -58.984375 L 24.125 -43.3125 L 48.296875 -43.3125 L 48.296875 -30.90625 L 24.125 -30.90625 L 24.125 -12.5 L 50.09375 -12.5 Z M 50.09375 0 "/></g></g></g></svg>